<svg xmlns="http://www.w3.org/2000/svg" xmlns:xlink="http://www.w3.org/1999/xlink" width="41.146" height="47" viewBox="0 0 41.146 47"><defs><style>.a{fill:none;}.b{clip-path:url(#a);}.c{fill:#ffac4e;fill-rule:evenodd;}</style><clipPath id="a"><rect class="a" width="41.147" height="47"/></clipPath></defs><g class="b"><path class="c" d="M87.037,19.911a20.659,20.659,0,1,1-2.755,0V16.755H81.3a.494.494,0,0,1-.459-.459V14.459A.453.453,0,0,1,81.3,14h8.665a.453.453,0,0,1,.459.459V16.3a.494.494,0,0,1-.459.459H87.037ZM78.945,42.12l5.28-2.755V29.552a1.377,1.377,0,1,1,2.755,0V40.168a1.44,1.44,0,0,1-.689,1.263l-6.083,3.156A1.386,1.386,0,0,1,78.945,42.12Zm24.39-.287h-.861a1.377,1.377,0,1,1,0-2.755h.861A17.839,17.839,0,0,0,86.922,22.665v.861a1.378,1.378,0,0,1-2.755,0v-.861A17.826,17.826,0,0,0,67.812,39.021h.8a1.406,1.406,0,0,1,0,2.812h-.8A17.826,17.826,0,0,0,84.167,58.188v-.861a1.378,1.378,0,0,1,2.755,0v.861A17.832,17.832,0,0,0,103.335,41.833Z" transform="translate(-65 -14)"/></g></svg>